<svg viewBox="0 0 32 32" fill="none" xmlns="http://www.w3.org/2000/svg">
<circle cx="15.3333" cy="6.00033" r="3.33333" stroke="currentColor" stroke-width="2"/>
<path d="M12 23.333C12 23.333 11.4325 25.492 10.6667 26.6663C9.86215 27.8999 8 29.333 8 29.333" stroke="currentColor" stroke-width="2" stroke-linecap="round"/>
<path d="M13.6132 17.2013L14.6083 17.3008V17.3008L13.6132 17.2013ZM13.5217 18.1161L12.5267 18.0166V18.0166L13.5217 18.1161ZM24.7689 14.4703L24.1288 13.7021V13.7021L24.7689 14.4703ZM25.9735 14.7682C26.3978 14.4147 26.4551 13.7841 26.1016 13.3598C25.748 12.9355 25.1174 12.8782 24.6932 13.2318L25.3333 14L25.9735 14.7682ZM14.9388 21.0034L14.4088 21.8514L14.4088 21.8514L14.9388 21.0034ZM15.3832 21.2812L15.9132 20.4332H15.9132L15.3832 21.2812ZM19.0098 27.1901L20.0059 27.1015V27.1015L19.0098 27.1901ZM18.2045 29.422C18.2534 29.9721 18.739 30.3783 19.2892 30.3294C19.8393 30.2804 20.2455 29.7948 20.1966 29.2447L19.2005 29.3333L18.2045 29.422ZM17.3333 15.3333L16.8189 16.1908C16.8408 16.204 16.8632 16.2163 16.8861 16.2277L17.3333 15.3333ZM13.6132 17.2013L12.6182 17.1018L12.5267 18.0166L13.5217 18.1161L14.5168 18.2156L14.6083 17.3008L13.6132 17.2013ZM24.7689 14.4703L25.4091 15.2386L25.9735 14.7682L25.3333 14L24.6932 13.2318L24.1288 13.7021L24.7689 14.4703ZM14.9388 21.0034L14.4088 21.8514L14.8532 22.1292L15.3832 21.2812L15.9132 20.4332L15.4688 20.1554L14.9388 21.0034ZM19.0098 27.1901L18.0138 27.2788L18.2045 29.422L19.2005 29.3333L20.1966 29.2447L20.0059 27.1015L19.0098 27.1901ZM17.3333 15.3333L16.8861 16.2277C19.6714 17.6204 23.0169 17.2321 25.4091 15.2386L24.7689 14.4703L24.1288 13.7021C22.3469 15.187 19.8551 15.4762 17.7806 14.4389L17.3333 15.3333ZM15.3832 21.2812L14.8532 22.1292C16.6555 23.2556 17.8254 25.1618 18.0138 27.2788L19.0098 27.1901L20.0059 27.1015C19.762 24.3602 18.247 21.8918 15.9132 20.4332L15.3832 21.2812ZM13.5217 18.1161L12.5267 18.0166C12.3735 19.5489 13.103 21.0353 14.4088 21.8514L14.9388 21.0034L15.4688 20.1554C14.8083 19.7426 14.4393 18.9907 14.5168 18.2156L13.5217 18.1161ZM13.6132 17.2013L14.6083 17.3008C14.7151 16.2321 15.8979 15.6382 16.8189 16.1908L17.3333 15.3333L17.8478 14.4758C15.6691 13.1686 12.871 14.5736 12.6182 17.1018L13.6132 17.2013Z" fill="currentColor"/>
<path d="M25.3333 29.3336V10.667" stroke="currentColor" stroke-width="2" stroke-linecap="round"/>
<path d="M12 13.333L8.81519 13.5247C7.83326 13.5837 6.9992 14.2661 6.7446 15.2188C6.52056 16.057 6.78816 16.9503 7.43583 17.5261L10.2182 19.9997" stroke="currentColor" stroke-width="2" stroke-linecap="round"/>
</svg>
