<svg viewBox="0 0 32 32" fill="none" xmlns="http://www.w3.org/2000/svg">
<path d="M29.3333 21.0297C27.2164 20.5309 26.1273 19.3054 25.2265 17.9425C24.662 17.0885 23.4206 17.1404 22.8073 17.9601C21.4054 19.8342 19.3125 21.3332 16 21.3332C12.6579 21.3332 10.5574 19.426 9.1553 17.6312C8.56957 16.8815 7.44819 16.8915 6.93553 17.693C6.00101 19.154 4.91199 20.5006 2.66663 21.0297" stroke="currentColor" stroke-width="2" stroke-linecap="round" stroke-linejoin="round"/>
<path d="M29.3333 27.6957C27.2164 27.1969 26.1273 25.9715 25.2265 24.6085C24.662 23.7545 23.4206 23.8064 22.8073 24.6261C21.4054 26.5002 19.3125 27.9992 16 27.9992C12.6579 27.9992 10.5574 26.092 9.1553 24.2973C8.56957 23.5475 7.44819 23.5575 6.93553 24.359C6.00101 25.82 4.91199 27.1667 2.66663 27.6957" stroke="currentColor" stroke-width="2" stroke-linecap="round" stroke-linejoin="round"/>
<path d="M5.33337 15.3333L9.96928 12.5518C11.0312 11.9146 11.2647 10.4754 10.4588 9.53519L9.14185 7.99875C8.49755 7.24707 8.54061 6.12607 9.24065 5.42603C10.0134 4.65325 11.278 4.69273 12.001 5.5122L20.6667 15.3333" stroke="currentColor" stroke-width="2" stroke-linecap="round" stroke-linejoin="round"/>
<path d="M22.6667 10.6667C24.5077 10.6667 26 9.17428 26 7.33333C26 5.49238 24.5077 4 22.6667 4C20.8258 4 19.3334 5.49238 19.3334 7.33333C19.3334 9.17428 20.8258 10.6667 22.6667 10.6667Z" stroke="currentColor" stroke-width="2" stroke-linecap="round" stroke-linejoin="round"/>
</svg>
