<svg width="20" height="20" viewBox="0 0 20 20" fill="none" xmlns="http://www.w3.org/2000/svg">
<path d="M18.7509 10.1941C18.7509 9.47471 18.6913 8.94971 18.5624 8.40527H10.1794V11.6525H15.1C15.0009 12.4594 14.4652 13.6747 13.2747 14.4913L13.258 14.6L15.9085 16.6123L16.0921 16.6303C17.7786 15.1039 18.7509 12.858 18.7509 10.1941" fill="#4285F4"/>
<path d="M10.1789 18.75C12.5896 18.75 14.6134 17.9722 16.0916 16.6305L13.2741 14.4916C12.5202 15.0068 11.5082 15.3666 10.1789 15.3666C7.81782 15.3666 5.81388 13.8402 5.09953 11.7305L4.99482 11.7392L2.23877 13.8295L2.20273 13.9277C3.67096 16.786 6.68683 18.75 10.1789 18.75Z" fill="#34A853"/>
<path d="M5.10005 11.7307C4.91156 11.1863 4.80248 10.6029 4.80248 10.0002C4.80248 9.39734 4.91156 8.81403 5.09013 8.2696L5.08514 8.15365L2.29455 6.02979L2.20324 6.07235C1.59811 7.25847 1.25089 8.59044 1.25089 10.0002C1.25089 11.4099 1.59811 12.7418 2.20324 13.9279L5.10005 11.7307" fill="#FBBC05"/>
<path d="M10.179 4.63331C11.8555 4.63331 12.9864 5.34303 13.6313 5.93612L16.1512 3.525C14.6036 2.11528 12.5896 1.25 10.179 1.25C6.68685 1.25 3.67097 3.21387 2.20273 6.07218L5.08963 8.26943C5.8139 6.15972 7.81785 4.63331 10.179 4.63331" fill="#EB4335"/>
</svg>
