<svg width="85" height="36" viewBox="0 0 85 36" fill="none" xmlns="http://www.w3.org/2000/svg">
<path d="M72.9732 13.7937C73.1096 13.7811 73.2474 13.7714 73.3845 13.7645C74.22 13.7257 74.629 13.9828 74.94 14.7938C75.736 16.8727 76.769 18.9649 77.385 21.0902C77.502 21.4973 77.072 22.1988 76.654 22.1859C75.265 22.5342 75.386 21.1537 74.828 20.359C74.745 20.2418 74.499 20.2726 74.338 20.2683L72.2261 20.2669C71.8984 21.2305 71.6871 22.5322 70.3963 22.1635C69.6259 21.9434 69.6687 21.2368 69.8753 20.6137C70.3836 19.0801 71.0464 17.6081 71.6035 16.0918C71.8984 15.3126 72.2288 14.2208 72.9732 13.7937Z" fill="#4765FF"/>
<path d="M41.6976 1.03582C47.0426 0.856406 52.623 3.91773 56.0987 7.8111C55.4674 8.71043 54.5257 9.66035 53.6898 10.4129C52.8183 11.3659 50.0609 12.1106 48.8724 11.4595C46.86 10.3567 45.9679 9.38888 43.3977 9.12885C41.0061 8.90442 38.6221 9.63198 36.7626 11.1539C34.9113 12.6707 33.8329 14.861 33.6143 17.2318C33.0212 23.6623 39.4242 28.6117 45.4897 26.3866C47.5904 25.616 48.4043 24.1443 50.7818 24.3805C53.1808 24.6188 54.6782 26.424 56.1068 28.1718C55.0969 29.4278 53.9131 30.4543 52.5896 31.3718C52.314 31.6108 51.5296 32.083 51.1978 32.2784C48.7052 33.7767 46.0936 34.6545 43.2104 34.9115C34.0012 35.7322 25.8775 28.0887 25.4336 18.8703C26.9087 18.7178 28.306 18.5743 29.7987 18.5659C30.0724 18.9962 30.2729 19.4518 30.5781 19.8617C30.7772 20.1293 31.4106 20.4482 31.6822 20.2128C31.6217 19.6616 31.2962 19.0274 31.173 18.3395C31.6981 18.2378 31.9624 18.1715 32.4675 17.9984C31.987 17.8415 31.6574 17.767 31.1612 17.6639C31.2671 17.0205 31.6575 16.303 31.6744 15.7693L31.5995 15.7078C30.5465 15.636 30.2764 16.6526 29.7945 17.455C28.3396 17.3836 26.8869 17.275 25.4376 17.1294C25.4256 16.1853 25.6065 15.3354 25.7834 14.424C26.875 8.80177 31.0236 4.02181 36.3811 2.03643C38.0556 1.41589 39.8974 1.12261 41.6976 1.03582Z" fill="#4765FF"/>
<path d="M21.3858 12.7343C22.5284 12.6129 23.7666 12.9753 24.7367 13.573C24.4318 14.1362 24.1225 14.697 23.8088 15.2552C23.3393 15.236 22.8497 15.2524 22.3785 15.2605C22.349 15.5533 22.352 15.904 22.347 16.2026L23.3131 16.263C23.037 16.591 22.7851 16.9592 22.5357 17.3093C20.7012 17.2508 19.6027 16.9729 18.083 18.0102C19.9024 19.1731 20.578 18.55 22.5269 18.7278C22.7816 18.9741 23.0157 19.3876 23.3073 19.7018L22.3681 19.6821C22.3411 20.0171 22.3396 20.4 22.3305 20.7395C22.7579 20.7529 23.2049 20.7521 23.6341 20.7572C23.9453 20.7937 24.5673 22.1615 24.7464 22.4973C24.2924 22.7863 23.1762 23.2451 22.6362 23.297C15.6131 23.9726 14.0477 13.9357 21.3858 12.7343Z" fill="#4765FF"/>
<path d="M67.2206 14.1003C66.3559 13.7348 63.662 13.8144 62.6755 13.8677C62.2341 13.9895 62.111 14.1869 61.8442 14.5602C61.768 15.8803 61.8295 17.2416 61.8081 18.5707C61.8148 19.4975 61.7787 20.4583 61.8549 21.3762C61.9291 22.2656 63.1142 22.4523 63.6172 22.0005C64.1749 21.4989 64.0084 19.5651 63.9616 18.8493C64.5709 18.9149 64.9441 18.9443 65.3453 19.5052C65.8463 20.2058 66.1606 20.9253 66.6916 21.6423C66.905 21.9898 67.1216 22.1611 67.5002 22.2164C69.3868 22.4919 68.6659 20.3879 67.9897 19.5375C67.6627 19.1261 67.4065 18.8095 67.1343 18.469C69.2992 17.6153 69.0772 14.885 67.2206 14.1003Z" fill="#4765FF"/>
<path d="M63.6954 15.3551C64.3862 15.3434 64.9962 15.333 65.689 15.3871C66.7384 15.4692 67.2159 16.5547 66.3097 17.1941C65.6181 17.5389 64.4324 17.4389 63.6445 17.4553C63.6653 17.0419 63.6077 15.6162 63.6954 15.3551Z" fill="white"/>
<path d="M38.435 13.8716C38.4845 13.868 38.5342 13.8653 38.5839 13.8637C40.106 13.8262 41.685 13.8251 43.2025 13.8902C43.5857 13.9066 43.9649 14.2401 44.0586 14.5989C44.4083 15.9395 42.1512 15.6563 41.3814 15.6704C40.8729 15.6797 40.3234 15.6589 39.8141 15.6527L39.8056 16.9934C40.5149 16.9712 43.4272 16.6802 43.6493 17.5064C44.1883 19.5106 40.8151 18.4343 39.8448 18.7666L39.8131 18.9203L39.8074 20.2612C40.6765 20.2227 41.5673 20.2459 42.4327 20.2212C43.1396 20.201 44.1141 20.2434 44.1308 21.1729C44.1375 21.539 43.9395 21.9966 43.5416 22.0528C42.9082 22.1423 42.2267 22.1079 41.586 22.1061C40.4798 22.1096 39.3733 22.0991 38.267 22.0745C38.0235 21.8815 37.9078 21.7467 37.7009 21.5129C37.6001 20.7162 37.6338 19.0202 37.6379 18.1725C37.643 17.1078 37.5865 15.4764 37.7058 14.4664C37.9413 14.203 38.1179 14.0248 38.435 13.8716Z" fill="#4765FF"/>
<path d="M73.5123 15.6885C73.7457 16.0933 74.491 18.3609 74.644 18.8573C74.287 18.8316 73.737 18.8427 73.3659 18.8394C73.0475 18.8363 72.7285 18.8385 72.4102 18.846C72.683 17.9035 73.1799 16.6603 73.5123 15.6885Z" fill="white"/>
<path d="M10.3851 14.8166C12.1299 14.6603 13.6748 15.9394 13.8477 17.6835C14.0206 19.4276 12.7569 20.9855 11.0154 21.175C9.25039 21.3671 7.66759 20.0819 7.49239 18.3141C7.31719 16.5465 8.61679 14.9752 10.3851 14.8166Z" fill="#4765FF"/>
<path d="M54.3639 13.8673C55.8473 13.8314 58.693 13.7984 60.1369 13.8853C60.2867 13.98 60.4258 14.0908 60.5516 14.2158C60.8626 14.5274 60.8686 15.1903 60.5422 15.4653C60.0406 15.8878 58.891 15.7457 58.2623 15.7304L58.265 20.3757C58.2703 20.6107 58.273 20.8456 58.2723 21.0806C58.2623 22.4954 56.8104 22.361 56.4372 21.9756C55.9489 21.4714 56.1295 16.3924 56.1857 15.7515C55.1337 15.6959 53.3494 16.1636 53.7647 14.4072C53.8282 14.1404 54.1385 13.9675 54.3639 13.8673Z" fill="#4765FF"/>
<path d="M79.2379 13.7911C79.8269 13.7314 80.7399 13.7751 80.7739 14.5327C80.8539 16.326 80.8959 18.4413 80.8049 20.2234C81.7479 20.2351 84.9749 19.7714 84.7169 21.26C84.6339 21.7366 84.5389 21.7793 84.1729 22.077C84.1139 22.0802 84.0539 22.0828 83.9949 22.0849C83.2439 22.109 79.3839 22.2487 78.9739 21.8646C78.8359 21.6209 78.7089 21.2037 78.7029 20.9268C78.6529 18.8372 78.6479 16.7291 78.7069 14.6396C78.7169 14.2704 78.9699 14.0087 79.2379 13.7911Z" fill="#4765FF"/>
<path d="M76.8828 23.5532C77.8348 23.5459 81.3938 23.3965 82.0708 23.7492C82.5538 24.2518 82.5858 26.115 82.1268 26.5834C81.6828 26.8104 81.0898 26.7573 80.5908 26.7491C80.7818 26.9101 82.8468 28.6246 82.8648 28.6638L82.7518 28.671C82.2118 28.6865 81.7418 28.6801 81.2008 28.663C80.5378 28.0289 79.8568 27.433 79.2038 26.7825C78.8598 26.7586 78.4088 26.7727 78.0578 26.7736L78.0458 28.6899L76.8858 28.6799L76.8828 23.5532ZM78.0408 25.8786C78.6348 25.8899 80.6698 25.9438 81.1948 25.8453C81.6238 24.0603 80.4748 24.469 79.2138 24.4491C78.8338 24.4431 78.4428 24.4774 78.0598 24.4764C78.0568 24.8743 78.0708 25.4989 78.0408 25.8786Z" fill="#4765FF"/>
<path d="M2.25671 15.7828C3.48261 15.6362 4.59911 16.5011 4.76401 17.7251C4.92911 18.9492 4.08161 20.0792 2.86081 20.2628C2.05461 20.384 1.24551 20.0612 0.743913 19.4182C0.242312 18.7751 0.125812 17.9115 0.439212 17.1584C0.752612 16.4054 1.44721 15.8796 2.25671 15.7828Z" fill="#4765FF"/>
<path d="M73.5521 23.5498L74.708 23.552L74.713 24.4736C74.707 25.4107 74.874 27.7441 74.47 28.425C73.9869 28.8205 69.3528 28.8303 69.1267 28.3624C68.7703 27.6218 68.9154 24.5107 68.9187 23.5519L70.1045 23.5546L70.1038 27.7159C71.2361 27.7409 72.4092 27.7294 73.5448 27.7328C73.5341 26.3385 73.5368 24.9441 73.5521 23.5498Z" fill="#4765FF"/>
<path d="M47.2496 13.7832C46.9366 13.7739 46.5781 13.7533 46.2705 13.7849C46.005 14.0275 45.8197 14.1894 45.595 14.4771C45.4305 16.6698 45.587 19.1351 45.5823 21.3434C45.5796 22.5956 47.7946 22.6085 47.6208 20.8669C47.5425 20.0856 47.7391 18.6028 47.5566 17.8203C47.5086 17.6716 47.5219 17.6461 47.6529 17.7392C48.4902 18.6623 49.6452 21.3128 50.5133 21.956C50.7407 22.1246 51.0891 22.2011 51.3667 22.2143C51.6917 22.2297 51.9672 22.1649 52.2261 21.9647C52.2348 21.9582 52.2428 21.9521 52.2508 21.9456C52.4381 21.7978 52.4441 21.4803 52.4662 21.2623C52.5518 20.4181 52.6253 14.4746 52.319 14.0809C52.1592 13.876 51.899 13.7895 51.6489 13.768C51.3673 13.7438 51.0878 13.7731 50.8651 13.9628C50.5915 14.1956 50.5481 14.4632 50.5233 14.8047C50.437 15.9861 50.5012 17.249 50.536 18.4353C49.9134 17.5141 47.9344 14.2539 47.2496 13.7832Z" fill="#4765FF"/>
<path d="M62.0745 23.5476C64.0528 23.5393 66.0311 23.5421 68.0101 23.556C67.9833 23.8991 67.9954 24.1864 68.0067 24.5275C67.1955 24.5169 66.3836 24.5224 65.5723 24.5437L65.5703 26.0635C65.5723 26.9387 65.5676 27.814 65.5556 28.6892L64.416 28.6846C64.3906 27.3236 64.41 25.9087 64.4106 24.5436C63.6362 24.5086 62.8544 24.5228 62.0625 24.4853L62.0745 23.5476Z" fill="#4765FF"/>
</svg>
