<svg width="137" height="36" viewBox="0 0 137 36" fill="none" xmlns="http://www.w3.org/2000/svg">
<path d="M98.9713 13.7935C99.1077 13.781 99.2455 13.7713 99.3826 13.7644C100.219 13.7256 100.627 13.9827 100.938 14.7937C101.734 16.8725 102.767 18.9648 103.383 21.0901C103.5 21.4972 103.07 22.1987 102.652 22.1858C101.263 22.534 101.384 21.1536 100.826 20.3589C100.744 20.2417 100.497 20.2725 100.336 20.2682L98.2242 20.2668C97.8965 21.2304 97.6852 22.532 96.3944 22.1634C95.624 21.9433 95.6668 21.2367 95.8734 20.6136C96.3817 19.08 97.0445 17.6079 97.6016 16.0917C97.8965 15.3125 98.2269 14.2207 98.9713 13.7935Z" fill="#4765FF"/>
<path d="M67.6985 1.0357C73.0435 0.856282 78.6239 3.91761 82.0997 7.81098C81.4683 8.71031 80.5267 9.66023 79.6907 10.4128C78.8192 11.3657 76.0618 12.1105 74.8734 11.4594C72.861 10.3566 71.9688 9.38876 69.3986 9.12873C67.007 8.9043 64.623 9.63186 62.7635 11.1538C60.9122 12.6706 59.8338 14.8609 59.6152 17.2317C59.0221 23.6622 65.4251 28.6116 71.4906 26.3864C73.5913 25.6159 74.4052 24.1441 76.7828 24.3804C79.1817 24.6186 80.6791 26.4239 82.1077 28.1717C81.0978 29.4276 79.914 30.4542 78.5905 31.3717C78.315 31.6107 77.5305 32.0829 77.1987 32.2783C74.7062 33.7766 72.0945 34.6544 69.2114 34.9114C60.0021 35.7321 51.8784 28.0886 51.4345 18.8701C52.9097 18.7176 54.3069 18.5742 55.7997 18.5658C56.0733 18.9961 56.2738 19.4516 56.579 19.8616C56.7782 20.1292 57.4115 20.4481 57.6831 20.2127C57.6226 19.6615 57.2971 19.0273 57.1739 18.3394C57.699 18.2377 57.9633 18.1714 58.4684 17.9983C57.9879 17.8413 57.6584 17.7669 57.1621 17.6637C57.268 17.0204 57.6584 16.3029 57.6753 15.7692L57.6004 15.7077C56.5474 15.6359 56.2773 16.6525 55.7954 17.4549C54.3405 17.3835 52.8878 17.2749 51.4385 17.1293C51.4266 16.1851 51.6074 15.3352 51.7844 14.4239C52.8759 8.80165 57.0245 4.02169 62.382 2.03631C64.0565 1.41577 65.8983 1.12249 67.6985 1.0357Z" fill="#4765FF"/>
<path d="M47.385 12.7341C48.5277 12.6127 49.7658 12.975 50.736 13.5728C50.431 14.1359 50.1217 14.6967 49.8081 15.255C49.3385 15.2357 48.8489 15.2522 48.3777 15.2602C48.3482 15.553 48.3512 15.9037 48.3462 16.2024L49.3123 16.2628C49.0362 16.5907 48.7843 16.959 48.535 17.3091C46.7004 17.2506 45.602 16.9726 44.0823 18.01C45.9016 19.1728 46.5773 18.5498 48.5261 18.7275C48.7809 18.9739 49.0149 19.3874 49.3065 19.7016L48.3673 19.6819C48.3403 20.0169 48.3389 20.3998 48.3297 20.7392C48.7571 20.7527 49.2041 20.7518 49.6333 20.757C49.9446 20.7935 50.5665 22.1612 50.7457 22.4971C50.2916 22.7861 49.1755 23.2449 48.6354 23.2968C41.6123 23.9723 40.047 13.9355 47.385 12.7341Z" fill="#4765FF"/>
<path d="M93.2203 14.0998C92.3556 13.7344 89.6617 13.8139 88.6752 13.8672C88.2338 13.989 88.1107 14.1864 87.8439 14.5597C87.7677 15.8798 87.8292 17.2411 87.8078 18.5702C87.8145 19.497 87.7784 20.4578 87.8546 21.3757C87.9288 22.2652 89.1139 22.4518 89.6169 22C90.1746 21.4984 90.0081 19.5646 89.9613 18.8488C90.5706 18.9144 90.9437 18.9439 91.345 19.5047C91.8459 20.2053 92.1603 20.9248 92.6913 21.6418C92.9046 21.9893 93.1213 22.1606 93.4999 22.2159C95.3865 22.4915 94.6656 20.3874 93.9894 19.537C93.6624 19.1256 93.4062 18.809 93.134 18.4685C95.2989 17.6148 95.0769 14.8846 93.2203 14.0998Z" fill="#4765FF"/>
<path d="M89.6958 15.3552C90.3867 15.3435 90.9966 15.3331 91.6895 15.3873C92.7388 15.4694 93.2163 16.5548 92.3101 17.1942C91.6186 17.539 90.4328 17.439 89.645 17.4554C89.6657 17.042 89.6082 15.6164 89.6958 15.3552Z" fill="white"/>
<path d="M64.4338 13.8714C64.4833 13.8678 64.533 13.8651 64.5827 13.8635C66.1048 13.826 67.6838 13.8249 69.2013 13.8899C69.5845 13.9063 69.9637 14.2398 70.0574 14.5986C70.4072 15.9392 68.15 15.6561 67.3802 15.6701C66.8717 15.6794 66.3222 15.6586 65.813 15.6525L65.8044 16.9932C66.5137 16.9709 69.426 16.6799 69.6481 17.5061C70.1871 19.5103 66.8139 18.4341 65.8436 18.7664L65.8119 18.92L65.8062 20.261C66.6754 20.2224 67.5661 20.2457 68.4315 20.221C69.1385 20.2008 70.1129 20.2431 70.1296 21.1726C70.1363 21.5387 69.9383 21.9963 69.5404 22.0526C68.9071 22.142 68.2256 22.1077 67.5848 22.1058C66.4786 22.1094 65.3721 22.0989 64.2658 22.0742C64.0223 21.8813 63.9066 21.7464 63.6997 21.5126C63.5989 20.716 63.6326 19.0199 63.6367 18.1723C63.6418 17.1076 63.5853 15.4762 63.7046 14.4662C63.9401 14.2027 64.1168 14.0246 64.4338 13.8714Z" fill="#4765FF"/>
<path d="M99.5123 15.6884C99.7457 16.0932 100.491 18.3608 100.644 18.8572C100.287 18.8315 99.737 18.8426 99.3659 18.8393C99.0475 18.8362 98.7285 18.8384 98.4102 18.8459C98.683 17.9034 99.1799 16.6602 99.5123 15.6884Z" fill="white"/>
<path d="M36.3866 14.8164C38.1314 14.66 39.6763 15.9392 39.8492 17.6833C40.0221 19.4273 38.7583 20.9853 37.0169 21.1748C35.2519 21.3669 33.6691 20.0816 33.4939 18.3139C33.3187 16.5462 34.6182 14.9749 36.3866 14.8164Z" fill="#4765FF"/>
<path d="M80.3628 13.8671C81.8462 13.8312 84.6919 13.7981 86.1358 13.8851C86.2856 13.9797 86.4247 14.0905 86.5505 14.2156C86.8615 14.5271 86.8675 15.1901 86.5411 15.465C86.0395 15.8875 84.8899 15.7455 84.2612 15.7302L84.2639 20.3755C84.2692 20.6104 84.2719 20.8453 84.2712 21.0803C84.2612 22.4952 82.8093 22.3608 82.4361 21.9753C81.9478 21.4712 82.1284 16.3921 82.1846 15.7513C81.1326 15.6957 79.3483 16.1634 79.7636 14.407C79.8271 14.1401 80.1374 13.9673 80.3628 13.8671Z" fill="#4765FF"/>
<path d="M105.236 13.7916C105.825 13.7319 106.739 13.7756 106.772 14.5332C106.852 16.3265 106.894 18.4418 106.804 20.2238C107.746 20.2356 110.973 19.7719 110.715 21.2605C110.632 21.7371 110.537 21.7798 110.172 22.0774C110.112 22.0807 110.053 22.0833 109.993 22.0854C109.242 22.1095 105.382 22.2492 104.972 21.8651C104.834 21.6214 104.708 21.2042 104.701 20.9273C104.651 18.8376 104.646 16.7296 104.705 14.6401C104.716 14.2709 104.968 14.0092 105.236 13.7916Z" fill="#4765FF"/>
<path d="M102.883 23.5533C103.835 23.5461 107.395 23.3966 108.072 23.7493C108.554 24.2519 108.586 26.1152 108.127 26.5835C107.684 26.8105 107.09 26.7574 106.591 26.7493C106.782 26.9102 108.847 28.6247 108.865 28.6639L108.752 28.6711C108.213 28.6866 107.742 28.6802 107.201 28.6631C106.538 28.0291 105.857 27.4331 105.204 26.7826C104.861 26.7587 104.409 26.7728 104.058 26.7737L104.046 28.69L102.886 28.68L102.883 23.5533ZM104.041 25.8788C104.635 25.89 106.67 25.9439 107.195 25.8454C107.624 24.0604 106.475 24.4691 105.214 24.4492C104.834 24.4432 104.443 24.4775 104.06 24.4765C104.057 24.8744 104.071 25.499 104.041 25.8788Z" fill="#4765FF"/>
<path d="M28.2552 15.7824C29.481 15.6358 30.5975 16.5007 30.7625 17.7248C30.9276 18.9488 30.0801 20.0788 28.8593 20.2624C28.053 20.3837 27.244 20.0609 26.7423 19.4178C26.2407 18.7747 26.1243 17.9111 26.4377 17.1581C26.7511 16.405 27.4457 15.8793 28.2552 15.7824Z" fill="#4765FF"/>
<path d="M99.5538 23.5502L100.709 23.5524L100.715 24.4739C100.709 25.4111 100.875 27.7444 100.471 28.4254C99.9885 28.8208 95.3545 28.8307 95.1284 28.3627C94.7719 27.6221 94.9171 24.5111 94.9204 23.5522L96.1062 23.555L96.1055 27.7163C97.2378 27.7413 98.4108 27.7297 99.5465 27.7332C99.5358 26.3388 99.5384 24.9445 99.5538 23.5502Z" fill="#4765FF"/>
<path d="M73.2482 13.7835C72.9352 13.7742 72.5767 13.7537 72.2691 13.7853C72.0036 14.0279 71.8183 14.1898 71.5936 14.4774C71.4291 16.6702 71.5856 19.1354 71.5809 21.3437C71.5782 22.596 73.7933 22.6088 73.6194 20.8673C73.5411 20.086 73.7377 18.6032 73.5552 17.8206C73.5072 17.672 73.5205 17.6465 73.6515 17.7395C74.4888 18.6627 75.6438 21.3132 76.5119 21.9563C76.7393 22.125 77.0877 22.2014 77.3653 22.2146C77.6903 22.23 77.9659 22.1652 78.2247 21.965C78.2334 21.9586 78.2414 21.9525 78.2494 21.946C78.4367 21.7982 78.4427 21.4806 78.4648 21.2627C78.5504 20.4185 78.6239 14.475 78.3176 14.0813C78.1578 13.8763 77.8976 13.7899 77.6475 13.7684C77.3659 13.7441 77.0864 13.7735 76.8637 13.9632C76.5902 14.1959 76.5467 14.4635 76.5219 14.805C76.4357 15.9864 76.4999 17.2494 76.5346 18.4356C75.912 17.5145 73.933 14.2543 73.2482 13.7835Z" fill="#4765FF"/>
<path d="M88.074 23.5474C90.0523 23.5391 92.0306 23.5419 94.0095 23.5558C93.9828 23.8989 93.9948 24.1861 94.0062 24.5273C93.1949 24.5167 92.383 24.5221 91.5718 24.5435L91.5698 26.0632C91.5718 26.9385 91.5671 27.8138 91.5551 28.6889L90.4154 28.6844C90.39 27.3234 90.4094 25.9084 90.4101 24.5434C89.6356 24.5084 88.8538 24.5226 88.062 24.485L88.074 23.5474Z" fill="#4765FF"/>
</svg>
