<svg  viewBox="0 0 20 20" fill="none" xmlns="http://www.w3.org/2000/svg">
<path d="M18.0493 8.63173L13.3797 6.62191L12.3398 6.18195C12.1798 6.10196 12.0398 5.89198 12.0398 5.71199V2.65226C12.0398 1.69235 11.3299 0.552451 10.4699 0.11249C10.17 -0.0374967 9.80999 -0.0374967 9.51002 0.11249C8.6601 0.552451 7.95016 1.70235 7.95016 2.66226V5.72199C7.95016 5.90198 7.81017 6.11196 7.65018 6.19195L1.95069 8.64173C1.32075 8.90171 0.810791 9.69164 0.810791 10.3716V11.6915C0.810791 12.5414 1.45073 12.9614 2.24066 12.6214L7.25022 10.4616C7.64019 10.2916 7.96016 10.5016 7.96016 10.9315V12.0414V13.8413C7.96016 14.0713 7.83017 14.4012 7.67018 14.5612L5.35039 16.891C5.11041 17.131 5.00042 17.6009 5.11041 17.9409L5.56037 19.3008C5.74035 19.8907 6.41029 20.1707 6.96025 19.8907L9.34004 17.8909C9.7 17.5809 10.29 17.5809 10.6499 17.8909L13.0297 19.8907C13.5797 20.1607 14.2496 19.8907 14.4496 19.3008L14.8995 17.9409C15.0095 17.6109 14.8995 17.131 14.6596 16.891L12.3398 14.5612C12.1698 14.4012 12.0398 14.0713 12.0398 13.8413V10.9315C12.0398 10.5016 12.3498 10.3016 12.7497 10.4616L17.7593 12.6214C18.5492 12.9614 19.1892 12.5414 19.1892 11.6915V10.3716C19.1892 9.69164 18.6792 8.90171 18.0493 8.63173Z" fill="currentColor"/>
</svg>
