<svg viewBox="0 0 20 20" fill="none" xmlns="http://www.w3.org/2000/svg">
<path fill-rule="evenodd" clip-rule="evenodd" d="M16.6667 15.8333C16.8877 15.8333 17.0996 15.9211 17.2559 16.0774C17.4122 16.2337 17.5 16.4457 17.5 16.6667C17.5 16.8877 17.4122 17.0996 17.2559 17.2559C17.0996 17.4122 16.8877 17.5 16.6667 17.5H3.33333C3.11232 17.5 2.90036 17.4122 2.74408 17.2559C2.5878 17.0996 2.5 16.8877 2.5 16.6667C2.5 16.4457 2.5878 16.2337 2.74408 16.0774C2.90036 15.9211 3.11232 15.8333 3.33333 15.8333H16.6667ZM7.98 2.5L9.53 2.7675L12.3175 9.66083L16.5842 10.4108C16.8924 10.4671 17.166 10.6428 17.3454 10.8996C17.5249 11.1564 17.5957 11.4737 17.5425 11.7825C17.4862 12.0907 17.3106 12.3643 17.0537 12.5437C16.7969 12.7232 16.4796 12.794 16.1708 12.7408L11.9042 11.9908L8.40833 11.3792L4.14167 10.6208L2.855 10.3933L2.5 6.33417L3.665 6.54083L4.555 8.29917L8.54833 9.00167L7.98 2.5Z" fill="currentColor"/>
</svg>
