<svg viewBox="0 0 16 16" fill="none" xmlns="http://www.w3.org/2000/svg">
<path d="M5.7908 2.54883C5.85396 2.61199 5.85396 2.72102 5.7908 2.78418L2.45096 6.12402C2.38911 6.18582 2.28415 6.1862 2.22049 6.12695C2.18142 6.08312 2.16678 6.038 2.16678 6.00586C2.16688 5.96301 2.18156 5.92274 2.21561 5.88867L5.55545 2.54883C5.61861 2.48567 5.72764 2.48567 5.7908 2.54883Z" fill="currentColor" stroke="currentColor" stroke-width="0.666667"/>
<path d="M13.8336 6.00684C13.8336 6.09607 13.7559 6.17383 13.6667 6.17383H2.33365C2.24441 6.17383 2.16666 6.09607 2.16666 6.00684C2.16666 5.9176 2.24441 5.83984 2.33365 5.83984H13.6667C13.7559 5.83984 13.8336 5.9176 13.8336 6.00684Z" fill="currentColor" stroke="currentColor" stroke-width="0.666667"/>
<path d="M13.7841 9.88281C13.8473 9.94597 13.8473 10.055 13.7841 10.1182L10.4443 13.458C10.3811 13.5211 10.2721 13.5212 10.209 13.458C10.1748 13.4238 10.1601 13.3829 10.1601 13.3398C10.1602 13.297 10.1749 13.2567 10.209 13.2227L13.5488 9.88281C13.612 9.81965 13.721 9.81965 13.7841 9.88281Z" fill="currentColor" stroke="currentColor" stroke-width="0.666667"/>
<path d="M1.83332 9.99316C1.83332 9.71983 2.05999 9.49316 2.33332 9.49316H13.6667C13.94 9.49316 14.1667 9.71983 14.1667 9.99316C14.1667 10.2665 13.94 10.4932 13.6667 10.4932H2.33332C2.05999 10.4932 1.83332 10.2732 1.83332 9.99316Z" fill="currentColor"/>
</svg>
