<svg viewBox="0 0 20 20" fill="none" xmlns="http://www.w3.org/2000/svg">
<path fill-rule="evenodd" clip-rule="evenodd" d="M6.667 1.66634C6.667 1.44533 6.7548 1.23337 6.91108 1.07709C7.06736 0.920805 7.27932 0.833008 7.50033 0.833008H12.5003C12.7213 0.833008 12.9333 0.920805 13.0896 1.07709C13.2459 1.23337 13.3337 1.44533 13.3337 1.66634C13.3337 1.88735 13.2459 2.09932 13.0896 2.2556C12.9333 2.41188 12.7213 2.49967 12.5003 2.49967H11.667V4.16634H13.5003C14.7887 4.16634 15.8337 5.21634 15.8337 6.51051V14.323C15.8343 14.6301 15.7745 14.9343 15.6576 15.2182C15.5407 15.5022 15.369 15.7603 15.1523 15.9779C14.9357 16.1955 14.6782 16.3683 14.3948 16.4864C14.1113 16.6046 13.8074 16.6657 13.5003 16.6663H13.3312C13.3237 17.023 13.2945 17.2263 13.1778 17.3438C13.0203 17.4997 12.7087 17.4997 12.0837 17.4997C11.4587 17.4997 11.1462 17.4997 10.9895 17.343C10.8728 17.2263 10.8437 17.023 10.8362 16.6663H9.1645C9.157 17.023 9.12783 17.2263 9.01117 17.3438C8.85367 17.4997 8.542 17.4997 7.917 17.4997C7.292 17.4997 6.9795 17.4997 6.82283 17.343C6.70617 17.2263 6.677 17.023 6.6695 16.6663H6.50033C5.212 16.6663 4.167 15.6163 4.167 14.3222V6.51051C4.16623 6.20336 4.22598 5.89908 4.34284 5.61503C4.4597 5.33098 4.63137 5.07274 4.84805 4.85505C5.06473 4.63736 5.32218 4.4645 5.60568 4.34633C5.88918 4.22816 6.19319 4.167 6.50033 4.16634H8.33367V2.49967H7.50033C7.27932 2.49967 7.06736 2.41188 6.91108 2.2556C6.7548 2.09932 6.667 1.88735 6.667 1.66634ZM9.167 4.16634H10.8337V2.49967H9.167V4.16634ZM10.0003 9.85801L7.642 7.49967L6.667 8.47467L9.02533 10.833L6.667 13.1913L7.642 14.1663L10.0003 11.808L12.3587 14.1663L13.3337 13.1913L10.9753 10.833L13.3337 8.47467L12.3587 7.49967L10.0003 9.85801Z" fill="currentColor"/>
</svg>
