<svg viewBox="0 0 20 20" fill="none" xmlns="http://www.w3.org/2000/svg">
<g clip-path="url(#clip0_638_35342)">
<path d="M14.5455 2.72656C17.6364 2.72656 20 6.03565 20 9.99929V14.5447C20 14.7859 19.9042 15.0171 19.7337 15.1876C19.5632 15.3581 19.332 15.4538 19.0909 15.4538H18.0264C17.8382 15.9855 17.4898 16.4458 17.0293 16.7713C16.5687 17.0969 16.0185 17.2717 15.4545 17.2717C14.8905 17.2717 14.3404 17.0969 13.8798 16.7713C13.4193 16.4458 13.0709 15.9855 12.8827 15.4538H7.11727C6.92908 15.9855 6.58072 16.4458 6.12016 16.7713C5.65959 17.0969 5.10946 17.2717 4.54545 17.2717C3.98145 17.2717 3.43131 17.0969 2.97075 16.7713C2.51018 16.4458 2.16183 15.9855 1.97364 15.4538H0.909091C0.667985 15.4538 0.436754 15.3581 0.266267 15.1876C0.0957789 15.0171 0 14.7859 0 14.5447V4.54474C0 4.06253 0.191558 3.60007 0.532533 3.2591C0.873508 2.91812 1.33597 2.72656 1.81818 2.72656H14.5455ZM4.54545 13.6357C4.30435 13.6357 4.07312 13.7314 3.90263 13.9019C3.73214 14.0724 3.63636 14.3036 3.63636 14.5447C3.63636 14.7859 3.73214 15.0171 3.90263 15.1876C4.07312 15.3581 4.30435 15.4538 4.54545 15.4538C4.78656 15.4538 5.01779 15.3581 5.18828 15.1876C5.35877 15.0171 5.45455 14.7859 5.45455 14.5447C5.45455 14.3036 5.35877 14.0724 5.18828 13.9019C5.01779 13.7314 4.78656 13.6357 4.54545 13.6357ZM15.4545 13.6357C15.2134 13.6357 14.9822 13.7314 14.8117 13.9019C14.6412 14.0724 14.5455 14.3036 14.5455 14.5447C14.5455 14.7859 14.6412 15.0171 14.8117 15.1876C14.9822 15.3581 15.2134 15.4538 15.4545 15.4538C15.6957 15.4538 15.9269 15.3581 16.0974 15.1876C16.2679 15.0171 16.3636 14.7859 16.3636 14.5447C16.3636 14.3036 16.2679 14.0724 16.0974 13.9019C15.9269 13.7314 15.6957 13.6357 15.4545 13.6357ZM14.7636 4.55474L15.7345 9.0902H18.1309C17.8464 6.58474 16.4082 4.70838 14.7636 4.55474ZM4.54545 4.54474H1.81818V7.27202H4.54545V4.54474ZM9.09091 4.54474H6.36364V7.27202H9.09091V4.54474ZM12.9009 4.54474H10.9091V7.27202H13.4855L12.9009 4.54474Z" fill="currentColor"/>
</g>
<defs>
<clipPath id="clip0_638_35342">
<rect width="20" height="20" fill="white"/>
</clipPath>
</defs>
</svg>
