<svg viewBox="0 0 20 20" fill="none" xmlns="http://www.w3.org/2000/svg">
<g clip-path="url(#clip0_638_35361)">
<path fill-rule="evenodd" clip-rule="evenodd" d="M7.778 19H12.222C15.343 19 16.904 19 18.025 18.265C18.5088 17.9482 18.9254 17.5391 19.251 17.061C20 15.961 20 14.428 20 11.364C20 8.30005 20 6.76705 19.251 5.66705C18.9254 5.18904 18.5088 4.77991 18.025 4.46305C17.305 3.99005 16.403 3.82105 15.022 3.76105C14.363 3.76105 13.796 3.27105 13.667 2.63605C13.5684 2.17092 13.3123 1.75408 12.9418 1.456C12.5714 1.15791 12.1095 0.996855 11.634 1.00005H8.366C7.378 1.00005 6.527 1.68505 6.333 2.63605C6.204 3.27105 5.637 3.76105 4.978 3.76105C3.598 3.82105 2.696 3.99105 1.975 4.46305C1.49154 4.78001 1.07527 5.18914 0.75 5.66705C0 6.76705 0 8.29905 0 11.364C0 14.429 5.96046e-08 15.96 0.749 17.061C1.073 17.537 1.489 17.946 1.975 18.265C3.096 19 4.657 19 7.778 19ZM10 7.27305C7.699 7.27305 5.833 9.10405 5.833 11.363C5.833 13.622 7.7 15.456 10 15.456C12.3 15.456 14.167 13.624 14.167 11.365C14.167 9.10605 12.3 7.27305 10 7.27305ZM10 8.90905C8.62 8.90905 7.5 10.008 7.5 11.364C7.5 12.719 8.62 13.818 10 13.818C11.38 13.818 12.5 12.719 12.5 11.364C12.5 10.009 11.38 8.90905 10 8.90905ZM14.722 8.09105C14.722 7.63905 15.095 7.27305 15.556 7.27305H16.666C17.126 7.27305 17.5 7.63905 17.5 8.09105C17.4979 8.30994 17.409 8.51905 17.2528 8.67243C17.0966 8.82581 16.8859 8.91091 16.667 8.90905H15.556C15.4475 8.9101 15.3399 8.88978 15.2393 8.84924C15.1387 8.80871 15.047 8.74874 14.9696 8.67278C14.8921 8.59683 14.8304 8.50636 14.7879 8.40654C14.7454 8.30673 14.723 8.19952 14.722 8.09105Z" fill="currentColor"/>
</g>
<defs>
<clipPath id="clip0_638_35361">
<rect width="20" height="20" fill="white"/>
</clipPath>
</defs>
</svg>
