<svg viewBox="0 0 20 20" fill="none" xmlns="http://www.w3.org/2000/svg">
<path d="M14.6154 0C14.2073 0 13.816 0.162087 13.5275 0.450605C13.239 0.739122 13.0769 1.13044 13.0769 1.53846H1.53845V3.07692L3.07691 4.61538L4.61538 3.07692L6.15384 4.61538L7.6923 3.07692L9.23076 4.61538H13.0769C13.0769 5.02341 13.239 5.41472 13.5275 5.70324C13.816 5.99176 14.2073 6.15385 14.6154 6.15385H17.6923C17.8963 6.15385 18.092 6.0728 18.2362 5.92854C18.3805 5.78429 18.4615 5.58863 18.4615 5.38462V0.769231C18.4615 0.565218 18.3805 0.369561 18.2362 0.225302C18.092 0.0810437 17.8963 0 17.6923 0H14.6154ZM15.3846 2.30769C15.3846 2.10368 15.4656 1.90802 15.6099 1.76376C15.7542 1.61951 15.9498 1.53846 16.1538 1.53846C16.3579 1.53846 16.5535 1.61951 16.6978 1.76376C16.842 1.90802 16.9231 2.10368 16.9231 2.30769V3.84615C16.9231 4.05017 16.842 4.24582 16.6978 4.39008C16.5535 4.53434 16.3579 4.61538 16.1538 4.61538C15.9498 4.61538 15.7542 4.53434 15.6099 4.39008C15.4656 4.24582 15.3846 4.05017 15.3846 3.84615V2.30769ZM1.76307 12.8523C1.61927 12.9965 1.5385 13.1918 1.53845 13.3954V19.2308C1.53845 19.4348 1.6195 19.6304 1.76375 19.7747C1.90801 19.919 2.10367 20 2.30768 20H4.61538C4.81939 20 5.01504 19.919 5.1593 19.7747C5.30356 19.6304 5.38461 19.4348 5.38461 19.2308V18.4615H14.6154V19.2308C14.6154 19.4348 14.6964 19.6304 14.8407 19.7747C14.9849 19.919 15.1806 20 15.3846 20H17.6923C17.8963 20 18.092 19.919 18.2362 19.7747C18.3805 19.6304 18.4615 19.4348 18.4615 19.2308V13.3954C18.4615 13.1918 18.3807 12.9965 18.2369 12.8523L16.9231 11.5385L14.84 8.06615C14.7715 7.9519 14.6746 7.85738 14.5586 7.79184C14.4426 7.72631 14.3117 7.69201 14.1785 7.69231H5.82153C5.68859 7.69228 5.55792 7.7267 5.44225 7.79222C5.32658 7.85774 5.22986 7.95212 5.16153 8.06615L3.07691 11.5385L1.76307 12.8523ZM15.5908 12.3077H4.40922L6.25538 9.23077H13.7446L15.5908 12.3077ZM6.92307 15.12V15.6923C6.92307 15.8147 6.87444 15.9321 6.78789 16.0187C6.70133 16.1052 6.58394 16.1538 6.46153 16.1538H3.53845C3.41604 16.1538 3.29865 16.1052 3.2121 16.0187C3.12554 15.9321 3.07691 15.8147 3.07691 15.6923V14.4092C3.07695 14.3409 3.09213 14.2735 3.12138 14.2118C3.15062 14.1501 3.19319 14.0956 3.24603 14.0524C3.29886 14.0091 3.36064 13.9781 3.4269 13.9616C3.49316 13.9451 3.56227 13.9435 3.62922 13.9569L6.42922 14.5169C6.5685 14.545 6.69379 14.6204 6.7838 14.7303C6.87382 14.8402 6.92302 14.9779 6.92307 15.12ZM16.9231 14.5969V15.6923C16.9231 15.8147 16.8744 15.9321 16.7879 16.0187C16.7013 16.1052 16.5839 16.1538 16.4615 16.1538H13.5385C13.416 16.1538 13.2987 16.1052 13.2121 16.0187C13.1255 15.9321 13.0769 15.8147 13.0769 15.6923V14.9938C13.077 14.8872 13.1139 14.7839 13.1815 14.7015C13.2491 14.619 13.3432 14.5625 13.4477 14.5415L16.1861 13.9938C16.2755 13.9759 16.3676 13.9779 16.4561 13.9999C16.5445 14.0218 16.6269 14.0632 16.6974 14.1209C16.7679 14.1786 16.8247 14.2512 16.8638 14.3335C16.9028 14.4159 16.923 14.5058 16.9231 14.5969Z" fill="currentColor"/>
</svg>
