<svg viewBox="0 0 48 48" fill="none" xmlns="http://www.w3.org/2000/svg">
<path d="M30.44 13.0996H11.56C11 13.0996 10.48 13.1196 10 13.1396C5.26 13.4196 4 15.1596 4 20.5596V21.7196C4 22.8196 4.9 23.7196 6 23.7196H36C37.1 23.7196 38 22.8196 38 21.7196V20.5596C38 14.5996 36.48 13.0996 30.44 13.0996Z" fill="currentColor"/>
<path d="M6 26.7197C4.9 26.7197 4 27.6197 4 28.7197V34.5397C4 40.4997 5.52 41.9997 11.56 41.9997H30.44C36.38 41.9997 37.94 40.5597 38 34.8597V28.7197C38 27.6197 37.1 26.7197 36 26.7197H6ZM13.92 37.1197H10.5C9.68 37.1197 9 36.4397 9 35.6197C9 34.7997 9.68 34.1197 10.5 34.1197H13.94C14.76 34.1197 15.44 34.7997 15.44 35.6197C15.44 36.4397 14.76 37.1197 13.92 37.1197ZM25.1 37.1197H18.22C17.4 37.1197 16.72 36.4397 16.72 35.6197C16.72 34.7997 17.4 34.1197 18.22 34.1197H25.1C25.92 34.1197 26.6 34.7997 26.6 35.6197C26.6 36.4397 25.94 37.1197 25.1 37.1197Z" fill="currentColor"/>
<path d="M43.9992 26.6602V16.1802C43.9992 9.9202 40.4192 7.2002 35.0192 7.2002H17.1592C15.6392 7.2002 14.2792 7.4202 13.0792 7.8802C12.1392 8.2202 11.2992 8.7202 10.6192 9.3802C10.2592 9.7202 10.5392 10.2802 11.0592 10.2802H32.7992C37.2992 10.2802 40.9392 13.9202 40.9392 18.4202V32.7602C40.9392 33.2602 41.4792 33.5402 41.8392 33.1802C43.2192 31.7202 43.9992 29.5802 43.9992 26.6602Z" fill="currentColor"/>
</svg>
