<svg viewBox="0 0 20 20" fill="none" xmlns="http://www.w3.org/2000/svg">
<path d="M11.1122 5.41794C12.0545 5.41794 12.8211 4.65132 12.8211 3.70889C12.8213 2.76662 12.0545 2 11.1122 2C10.1699 2 9.40332 2.76662 9.40332 3.70889C9.40332 4.65132 10.1699 5.41794 11.1122 5.41794Z" fill="currentColor"/>
<path d="M15.1924 10.7069L13.0626 6.25781C12.9537 6.03057 12.6711 5.85254 12.4191 5.85254H12.4072H11.9399H10.2155C10.0723 5.85254 9.94295 5.91183 9.85 6.00682C9.84539 6.01041 9.83992 6.01297 9.83548 6.0169L8.28241 7.34376C8.11088 7.49035 7.94463 7.77909 7.90431 8.0012L7.36458 10.9713C7.33981 11.107 7.37056 11.2427 7.45069 11.353C7.531 11.4636 7.65042 11.5346 7.78728 11.5531L7.97453 11.5784L7.39773 13.5521C7.35092 13.5183 7.29949 13.4908 7.24242 13.4742L5.54054 12.9768C5.4939 12.9632 5.44572 12.9563 5.39737 12.9563C5.17081 12.9563 4.96818 13.1079 4.90479 13.325L4.02062 16.3503C3.94135 16.6215 4.09768 16.9068 4.36882 16.9861L5.67808 17.3688C5.7319 17.6046 5.90532 17.806 6.15357 17.8786C6.21661 17.8969 6.28154 17.9063 6.34663 17.9063C6.65041 17.9063 6.9219 17.7025 7.00699 17.4108C7.05875 17.2343 7.03859 17.0483 6.95026 16.887C6.91712 16.8265 6.87355 16.7746 6.82571 16.7276L7.5908 14.1101L7.59097 14.1094L8.34255 11.5374C8.49103 11.4656 8.60687 11.3298 8.64121 11.1649L9.15223 8.70803C9.18247 8.56297 9.31215 8.35675 9.42987 8.26688L9.70307 8.05793V11.3216C9.69897 11.333 9.69299 11.3435 9.68923 11.3551L8.01776 16.5897C7.94822 16.8077 7.96941 17.0372 8.07756 17.2357C8.18571 17.4342 8.36699 17.5764 8.5879 17.636L8.69964 17.6663C8.77277 17.6861 8.84862 17.6962 8.92483 17.6962C9.30942 17.6962 9.65882 17.4431 9.77466 17.0806L11.3364 12.1894L11.8903 13.5461C12.0255 13.8772 12.1714 14.4569 12.209 14.812L12.474 17.31C12.5165 17.71 12.8328 18.0003 13.2261 18.0003C13.2905 18.0003 13.3559 17.9924 13.4203 17.9769L13.5329 17.9495C13.9813 17.841 14.298 17.3804 14.2391 16.923L13.8466 13.8771C13.7969 13.4901 13.6298 12.8841 13.4745 12.5259L12.9445 11.3052C12.9377 11.2893 12.9279 11.2749 12.9201 11.2594V9.08271L14.0605 11.3899C14.1422 11.5548 14.3037 11.6571 14.4822 11.6571C14.5741 11.6571 14.665 11.6298 14.7448 11.5782L14.9922 11.4181C15.2234 11.2681 15.3115 10.9558 15.1924 10.7069ZM6.73481 17.3312C6.68493 17.5022 6.52518 17.6222 6.3468 17.6222C6.30836 17.6222 6.27009 17.6167 6.23302 17.606C6.01893 17.5434 5.89541 17.3182 5.95794 17.1042C6.01876 16.8959 6.25044 16.7677 6.45991 16.8292C6.56379 16.8595 6.64956 16.9285 6.70167 17.0233C6.75344 17.1182 6.76523 17.2277 6.73481 17.3312Z" fill="currentColor"/>
</svg>
