<svg viewBox="0 0 20 20" fill="none" xmlns="http://www.w3.org/2000/svg">
<path fill-rule="evenodd" clip-rule="evenodd" d="M14.0837 6.79297H5.91699V16.6677H14.0837V6.79297ZM15.0837 16.6667C16.8861 16.6224 18.3337 15.1474 18.3337 13.3343V10.1263C18.3337 8.31321 16.8861 6.83821 15.0837 6.79399V16.6667ZM1.667 10.1263C1.667 8.31321 3.11456 6.83822 4.91699 6.79399V16.6667C3.11455 16.6224 1.66699 15.1474 1.66699 13.3343L1.667 10.1263Z" fill="currentColor"/>
<path d="M7.08701 5.64647L7.08105 5.73538H7.17016H7.79375H7.87005L7.87675 5.65938C7.96521 4.65848 8.83395 4.07789 9.91395 4.07789C10.9935 4.07789 11.8635 4.6584 11.9669 5.66059L11.9745 5.73538H12.0497H12.6733H12.7634L12.7564 5.64555C12.6999 4.92275 12.3597 4.36317 11.8457 3.98602C11.3334 3.61014 10.6525 3.41797 9.91395 3.41797C9.17545 3.41797 8.49436 3.61013 7.98401 3.98611C7.47181 4.36344 7.13547 4.92336 7.08701 5.64647Z" fill="currentColor" stroke="currentColor" stroke-width="0.2"/>
</svg>
