<svg viewBox="0 0 20 20" fill="none" xmlns="http://www.w3.org/2000/svg">
<g clip-path="url(#clip0_638_35377)">
<path d="M8.95728 3.74531H12.0853L15.5156 0.304513C15.6126 0.206785 15.7279 0.129217 15.855 0.076282C15.982 0.0233472 16.1183 -0.00390625 16.2559 -0.00390625C16.3936 -0.00390625 16.5299 0.0233472 16.6569 0.076282C16.784 0.129217 16.8993 0.206785 16.9962 0.304513L19.6863 3.00502C19.8805 3.20037 19.9895 3.46464 19.9895 3.7401C19.9895 4.01555 19.8805 4.27982 19.6863 4.47518L17.2986 6.87331H8.95728V8.95864C8.95728 9.23517 8.84742 9.50038 8.65189 9.69592C8.45635 9.89145 8.19114 10.0013 7.91461 10.0013C7.63808 10.0013 7.37287 9.89145 7.17734 9.69592C6.9818 9.50038 6.87194 9.23517 6.87194 8.95864V5.83064C6.87194 5.27758 7.09165 4.74717 7.48273 4.35609C7.8738 3.96501 8.40421 3.74531 8.95728 3.74531ZM2.70128 8.95864V13.1293L0.313576 15.517C0.119378 15.7124 0.010376 15.9766 0.010376 16.2521C0.010376 16.5275 0.119378 16.7918 0.313576 16.9872L3.00365 19.6877C3.10058 19.7854 3.2159 19.863 3.34296 19.9159C3.47002 19.9688 3.6063 19.9961 3.74395 19.9961C3.88159 19.9961 4.01787 19.9688 4.14493 19.9159C4.27199 19.863 4.38731 19.7854 4.48424 19.6877L8.95728 15.2146H13.1279C13.4045 15.2146 13.6697 15.1048 13.8652 14.9092C14.0608 14.7137 14.1706 14.4485 14.1706 14.172V13.1293H15.2133C15.4898 13.1293 15.755 13.0195 15.9506 12.8239C16.1461 12.6284 16.2559 12.3632 16.2559 12.0866V11.044H17.2986C17.5751 11.044 17.8403 10.9341 18.0359 10.7386C18.2314 10.543 18.3413 10.2778 18.3413 10.0013V8.95864H11.0426V10.0013C11.0426 10.5544 10.8229 11.0848 10.4318 11.4759C10.0408 11.8669 9.51034 12.0866 8.95728 12.0866H6.87194C6.31888 12.0866 5.78847 11.8669 5.39739 11.4759C5.00632 11.0848 4.78661 10.5544 4.78661 10.0013V6.87331L2.70128 8.95864Z" fill="currentColor"/>
</g>
<defs>
<clipPath id="clip0_638_35377">
<rect width="20" height="20" fill="white"/>
</clipPath>
</defs>
</svg>
