<svg viewBox="0 0 20 20" fill="none" xmlns="http://www.w3.org/2000/svg">
<path fill-rule="evenodd" clip-rule="evenodd" d="M16.6663 15.8329C16.8873 15.8329 17.0993 15.9207 17.2556 16.0769C17.4119 16.2332 17.4996 16.4452 17.4996 16.6662C17.4996 16.8872 17.4119 17.0992 17.2556 17.2555C17.0993 17.4117 16.8873 17.4995 16.6663 17.4995H3.33298C3.11197 17.4995 2.90001 17.4117 2.74373 17.2555C2.58745 17.0992 2.49965 16.8872 2.49965 16.6662C2.49965 16.4452 2.58745 16.2332 2.74373 16.0769C2.90001 15.9207 3.11197 15.8329 3.33298 15.8329H16.6663ZM6.98798 3.26953L12.0596 8.70536L16.3121 7.87703C16.6202 7.819 16.9387 7.88493 17.1984 8.06049C17.458 8.23606 17.6379 8.50705 17.6988 8.81453C17.7569 9.12257 17.6909 9.44106 17.5154 9.70074C17.3398 9.96042 17.0688 10.1403 16.7613 10.2012L12.5088 11.0295L9.02631 11.7112L4.77048 12.5329L3.48881 12.7804L1.70215 9.11787L2.86382 8.89287L4.32465 10.2162L8.30465 9.4412L5.44381 3.57453L6.98798 3.26953Z" fill="currentColor"/>
</svg>
