<svg viewBox="0 0 15 15" fill="none" xmlns="http://www.w3.org/2000/svg">
<path d="M1.5 1.5L13.5 13.5" stroke="currentColor" stroke-width="1.2" stroke-linecap="round" stroke-linejoin="round"/>
<path d="M6.43 3.02A5.97 5.97 0 0 1 7.5 2.9c3.404 0 5.637 3.003 6.387 4.191.09.144.135.216.16.327.02.083.02.214.001.297-.026.111-.071.183-.162.327-.4.641-1.054 1.548-1.982 2.363M4.234 4.234C2.965 5.1 2.122 6.248 1.613 7.09c-.09.144-.136.216-.161.327-.019.083-.019.214 0 .297.025.111.07.183.16.327C2.363 9.23 4.596 12.233 8 12.233c1.36 0 2.51-.47 3.458-1.15" stroke="currentColor" stroke-width="1.2" stroke-linecap="round" stroke-linejoin="round"/>
<path d="M5.645 9.176a2.667 2.667 0 0 1 3.53-3.53" stroke="currentColor" stroke-width="1.2" stroke-linecap="round" stroke-linejoin="round"/>
</svg>
