<svg viewBox="0 0 15 11" fill="none" xmlns="http://www.w3.org/2000/svg">
<path d="M0.775891 5.74222C0.685099 5.59846 0.639704 5.52658 0.614292 5.41571C0.595204 5.33243 0.595204 5.2011 0.614292 5.11782C0.639704 5.00695 0.685099 4.93507 0.77589 4.79131C1.52616 3.60332 3.75941 0.600098 7.16274 0.600098C10.5661 0.600098 12.7993 3.60332 13.5496 4.79131C13.6404 4.93507 13.6858 5.00695 13.7112 5.11782C13.7303 5.2011 13.7303 5.33243 13.7112 5.41571C13.6858 5.52658 13.6404 5.59846 13.5496 5.74222C12.7993 6.9302 10.5661 9.93343 7.16274 9.93343C3.75941 9.93343 1.52616 6.9302 0.775891 5.74222Z" stroke="currentColor" stroke-width="1.2" stroke-linecap="round" stroke-linejoin="round"/>
<path d="M7.16274 7.26676C8.26731 7.26676 9.16274 6.37133 9.16274 5.26676C9.16274 4.16219 8.26731 3.26676 7.16274 3.26676C6.05818 3.26676 5.16274 4.16219 5.16274 5.26676C5.16274 6.37133 6.05818 7.26676 7.16274 7.26676Z" stroke="currentColor" stroke-width="1.2" stroke-linecap="round" stroke-linejoin="round"/>
</svg>
