<svg viewBox="0 0 40 40" fill="none" xmlns="http://www.w3.org/2000/svg">
<path d="M39.0078 13.8293C42.4421 24.3204 36.6706 35.6223 26.1769 39.0081C15.6833 42.4415 4.37876 36.6714 0.992171 26.1802C-2.44212 15.6891 3.3294 4.38721 13.8231 1.00143C15.8264 0.333806 17.9251 0 20.0238 0C28.6573 0.0476871 36.3367 5.62708 39.0078 13.8293ZM20.0238 1.85979C9.95948 1.85979 1.85074 10.0143 1.85074 20.0763C1.85074 30.1383 10.0072 38.2451 20.0715 38.2451C30.1359 38.2451 38.2447 30.0906 38.2447 20.0286C38.2447 18.1211 37.9585 16.2613 37.3384 14.4492C34.9058 6.91463 27.8941 1.81211 20.0238 1.85979Z" fill="currentColor"/>
<path fill-rule="evenodd" clip-rule="evenodd" d="M23.346 13.4812C24.0138 13.4812 24.6816 13.4812 25.3016 13.4812H25.5878V10.0954C25.2539 10.0954 24.8723 10 24.4908 10C23.823 10 23.1552 10 22.4874 10C21.4858 10 20.4841 10.2861 19.6732 10.8584C18.7669 11.526 18.1469 12.5751 18.0038 13.6719C17.9084 14.1011 17.8607 14.578 17.8607 15.0071C17.8607 15.7701 17.8607 16.5331 17.8607 17.2961V17.6776H14.6172V21.4449H17.813V30.9347H21.8196V21.3972H25.0154L25.397 17.6299H21.6766C21.6766 17.6299 21.6766 15.7701 21.6766 14.9595C21.8197 13.815 22.4874 13.4812 23.346 13.4812Z" fill="currentColor"/>
</svg>
