<svg viewBox="0 0 40 40" fill="none" xmlns="http://www.w3.org/2000/svg">
<path d="M20 0C8.97375 0 0 8.97374 0 20C0 31.0263 8.97375 40 20 40C31.0263 40 40 31.0263 40 20C40 8.97374 31.0263 0 20 0ZM20 38.4726C9.7852 38.4726 1.52745 30.2148 1.57518 20C1.57518 9.7852 9.83293 1.52745 20.0477 1.57518C30.2625 1.57518 38.5203 9.83294 38.4726 20.0477C38.4726 22.673 37.8998 25.2506 36.8496 27.5895C33.8425 34.2243 27.2554 38.4726 20 38.4726Z" fill="currentColor"/>
<path d="M26.1575 9.16431H13.8425C11.3127 9.16431 9.26017 11.1691 9.21243 13.6512V26.3004C9.26017 28.8302 11.3127 30.835 13.8425 30.7872H26.1098C28.6396 30.835 30.6921 28.7825 30.7399 26.3004V13.6512C30.6921 11.1691 28.6396 9.16431 26.1575 9.16431ZM28.8783 26.3481C28.8783 27.8278 27.685 29.0211 26.2053 29.0211C26.1575 29.0211 26.1575 29.0211 26.1098 29.0211H13.8425C12.3628 29.0688 11.1217 27.9233 11.074 26.4435C11.074 26.3958 11.074 26.3958 11.074 26.3481V13.6989C11.074 12.2192 12.2673 11.0259 13.747 11.0259C13.7948 11.0259 13.7948 11.0259 13.8425 11.0259H26.1098C27.5895 10.9782 28.8306 12.1237 28.8783 13.6034C28.8783 13.6512 28.8783 13.6512 28.8783 13.6989V26.3481Z" fill="currentColor"/>
<path d="M20 14.3674C16.8974 14.3674 14.3675 16.8972 14.3675 19.9998C14.3675 23.1024 16.8974 25.6323 20 25.6323C23.1026 25.6323 25.6324 23.1024 25.6324 19.9998C25.6324 16.8972 23.1026 14.3674 20 14.3674ZM20 23.723C17.8997 23.723 16.2291 22.0523 16.2291 19.9521C16.2291 17.8518 17.8997 16.1812 20 16.1812C22.1002 16.1812 23.7709 17.8518 23.7709 19.9521V19.9998C23.7709 22.0523 22.1002 23.7707 20 23.7707V23.723Z" fill="currentColor"/>
<path d="M26.0143 15.4658C26.7524 15.4658 27.3508 14.8674 27.3508 14.1293C27.3508 13.3911 26.7524 12.7927 26.0143 12.7927C25.2762 12.7927 24.6778 13.3911 24.6778 14.1293C24.6778 14.8674 25.2762 15.4658 26.0143 15.4658Z" fill="currentColor"/>
<path d="M19.9996 14.3676C16.897 14.3676 14.3672 16.8974 14.3672 20C14.3672 23.1027 16.897 25.6325 19.9996 25.6325C23.1023 25.6325 25.6321 23.1027 25.6321 20C25.6321 16.8974 23.1023 14.3676 19.9996 14.3676ZM19.9996 23.7232C17.8994 23.7232 16.2288 22.0526 16.2288 19.9523C16.2288 17.8521 17.8994 16.1814 19.9996 16.1814C22.0999 16.1814 23.7705 17.8521 23.7705 19.9523V20C23.7705 22.0526 22.0999 23.7709 19.9996 23.7709V23.7232Z" fill="currentColor"/>
<path d="M26.014 15.466C26.7521 15.466 27.3505 14.8676 27.3505 14.1295C27.3505 13.3913 26.7521 12.793 26.014 12.793C25.2758 12.793 24.6774 13.3913 24.6774 14.1295C24.6774 14.8676 25.2758 15.466 26.014 15.466Z" fill="currentColor"/>
</svg>
