<svg viewBox="0 0 24 24" fill="none" xmlns="http://www.w3.org/2000/svg">
<path d="M14.2002 2.5H16.7998C18.2944 2.5 19.4579 2.96466 20.2451 3.75293C21.0322 4.54112 21.4949 5.70417 21.4902 7.19824V16.7998C21.4902 18.2943 21.0249 19.4575 20.2363 20.2461C19.4477 21.0347 18.2846 21.5 16.79 21.5H14.2002C12.7056 21.5 11.5425 21.0347 10.7539 20.2461C9.96528 19.4575 9.5 18.2944 9.5 16.7998V13.25H15.25C15.9361 13.25 16.5 12.6861 16.5 12C16.5 11.3139 15.9361 10.75 15.25 10.75H9.5V7.2002C9.5 5.70564 9.96528 4.54253 10.7539 3.75391C11.5425 2.96528 12.7056 2.5 14.2002 2.5Z" fill="currentColor" stroke="currentColor"/>
<path d="M5.9234 8.47363C6.01814 8.37889 6.18218 8.37889 6.27692 8.47363L6.28864 8.48535C6.32098 8.51554 6.35005 8.57426 6.35016 8.64941C6.35016 8.71384 6.328 8.77494 6.27692 8.82617L3.35309 11.75H8.49957V12.25H3.35309L6.27692 15.1738C6.37114 15.2686 6.37131 15.4318 6.27692 15.5264C6.18218 15.6211 6.01814 15.6211 5.9234 15.5264L2.57379 12.1768C2.47905 12.082 2.47905 11.918 2.57379 11.8232L5.9234 8.47363Z" fill="currentColor" stroke="currentColor"/>
</svg>
