<svg viewBox="0 0 20 20" fill="none" xmlns="http://www.w3.org/2000/svg">
<path d="M8.49283 4.78721H7.44322V3.39361C7.44392 3.02421 7.59097 2.67015 7.85217 2.40895C8.11337 2.14775 8.46743 2.0007 8.83682 2H10.9316C11.301 2.0007 11.6551 2.14775 11.9163 2.40895C12.1775 2.67015 12.3245 3.02421 12.3252 3.39361V4.78721H11.2845V3.39361C11.2845 3.30237 11.2482 3.21488 11.1837 3.15037C11.1192 3.08586 11.0317 3.04961 10.9405 3.04961H10.5788V3.39361H9.172V3.04961H8.83682C8.74559 3.04961 8.6581 3.08586 8.59359 3.15037C8.52908 3.21488 8.49283 3.30237 8.49283 3.39361V4.78721ZM13.344 5.48401H8.47519V7.0452L9.5204 8.086V11.0849H7.08159V8.086L8.12238 7.0452V5.48401H6.39361C6.02421 5.48471 5.67015 5.63176 5.40895 5.89296C5.14775 6.15416 5.0007 6.50823 5 6.87762V15.9096C5.0007 16.279 5.14775 16.633 5.40895 16.8942C5.67015 17.1554 6.02421 17.3025 6.39361 17.3032V18H7.78721V17.3032H11.9592V17.9471H13.3528V17.3032C13.7222 17.3025 14.0763 17.1554 14.3375 16.8942C14.5987 16.633 14.7457 16.279 14.7464 15.9096V6.8688C14.7418 6.49992 14.592 6.14772 14.3295 5.88852C14.067 5.62932 13.7129 5.48398 13.344 5.48401ZM7.9548 7.91841C7.9548 8.00964 7.99104 8.09714 8.05555 8.16165C8.12006 8.22616 8.20756 8.2624 8.29879 8.2624C8.38932 8.26017 8.47552 8.22321 8.53955 8.15917C8.60358 8.09514 8.64054 8.00894 8.64278 7.91841C8.64278 7.82718 8.60654 7.73968 8.54203 7.67517C8.47751 7.61066 8.39002 7.57442 8.29879 7.57442C8.20756 7.57442 8.12006 7.61066 8.05555 7.67517C7.99104 7.73968 7.9548 7.82718 7.9548 7.91841Z" fill="currentColor"/>
</svg>
