<svg viewBox="0 0 20 20" fill="none" xmlns="http://www.w3.org/2000/svg">
<g clip-path="url(#clip0_638_35353)">
<path fill-rule="evenodd" clip-rule="evenodd" d="M12.4473 4.41829C13.2 4.1065 14.0121 3.96438 14.826 4.00202C15.6398 4.03966 16.4353 4.25614 17.156 4.63608C17.8767 5.01601 18.5048 5.55006 18.9957 6.20026C19.4866 6.85045 19.8282 7.60082 19.9963 8.398H17.2522L15.9946 7.14032L14.7363 8.39828H11.3654C11.1811 7.58292 10.9427 6.78072 10.652 5.99697H10.3047C10.8802 5.30461 11.6155 4.76278 12.4473 4.41829Z" fill="currentColor"/>
<path fill-rule="evenodd" clip-rule="evenodd" d="M8.74911 8.47317C8.96724 11.761 8.31434 15.0481 6.8563 18.003H11.0347C12.1707 14.2126 12.0896 10.1613 10.8026 6.41944L8.74911 8.47317ZM7.54517 2.41829C6.79249 2.1065 5.98036 1.96438 5.16654 2.00202C4.35271 2.03966 3.55717 2.25614 2.83648 2.63608C2.1158 3.01601 1.48768 3.55006 0.996776 4.20026C0.505877 4.85045 0.164259 5.60082 -0.00378418 6.398H2.73996L3.99793 5.14032L5.06639 6.20877C5.80091 5.79043 6.62131 5.54545 7.46495 5.49254C8.30859 5.43963 9.15317 5.5802 9.93419 5.9035C10.2503 6.03451 10.5537 6.1945 10.8403 6.38142L10.8234 6.39857H10.8492C10.6634 5.51652 10.2654 4.69306 9.6896 3.99951C9.11384 3.30595 8.37796 2.76321 7.54517 2.41829Z" fill="currentColor"/>
<path fill-rule="evenodd" clip-rule="evenodd" d="M2.68857 8.90405C3.00029 8.15132 3.47404 7.47653 4.07614 6.92766C4.67823 6.3788 5.39388 5.96935 6.17217 5.72844C6.95046 5.48753 7.77227 5.42108 8.57916 5.53381C9.38604 5.64654 10.1582 5.93569 10.8406 6.38068L6.88551 10.3358H5.10646V12.1149L3.1662 14.0548C2.67391 13.2998 2.37311 12.4361 2.28983 11.5386C2.20656 10.6411 2.34361 9.73679 2.68857 8.90405Z" fill="currentColor"/>
</g>
<defs>
<clipPath id="clip0_638_35353">
<rect width="20" height="20" fill="currentColor"/>
</clipPath>
</defs>
</svg>
