<svg viewBox="0 0 24 24" fill="none" xmlns="http://www.w3.org/2000/svg">
<path d="M8.21973 2.5H15.7803C17.6689 2.50003 18.6433 2.76414 19.1904 3.34961C19.7485 3.94717 19.9953 5.01638 19.9902 7.03906V18.29C19.9902 18.9151 19.9042 19.3844 19.7725 19.709C19.6415 20.0316 19.4812 20.1774 19.3447 20.2363C19.2119 20.2937 19.011 20.3078 18.7139 20.1797C18.4495 20.0657 18.1332 19.8475 17.7793 19.4971L17.625 19.3379C17.1213 18.7979 16.4632 18.5295 15.8008 18.5654C15.138 18.6015 14.5127 18.9404 14.0703 19.5303H14.0693L13.0615 20.8779C12.7368 21.3069 12.3462 21.4824 11.9951 21.4824C11.6879 21.4824 11.3508 21.3482 11.0537 21.0273L10.9287 20.8779L9.91992 19.5303H9.9209C9.07957 18.4046 7.60667 18.2581 6.57617 19.1455L6.38672 19.3262L6.37012 19.3428L6.36426 19.3496C5.95042 19.7938 5.58163 20.0593 5.28027 20.1895C4.98417 20.3173 4.78331 20.3036 4.64941 20.2461C4.51185 20.1868 4.35037 20.0405 4.21875 19.7178C4.08646 19.3934 4 18.9245 4 18.2998V7.04004C4 5.01756 4.2482 3.94867 4.80762 3.35059C5.356 2.76442 6.33091 2.50003 8.21973 2.5ZM9 9.75C8.31386 9.75 7.75 10.3139 7.75 11C7.75 11.6861 8.31386 12.25 9 12.25H15C15.6861 12.25 16.25 11.6861 16.25 11C16.25 10.3139 15.6861 9.75 15 9.75H9ZM8 5.75C7.31386 5.75 6.75 6.31386 6.75 7C6.75 7.68614 7.31386 8.25 8 8.25H16C16.6861 8.25 17.25 7.68614 17.25 7C17.25 6.31386 16.6861 5.75 16 5.75H8Z" fill="currentColor" stroke="currentColor"/>
</svg>
