<svg viewBox="0 0 16 16" fill="none" xmlns="http://www.w3.org/2000/svg">
<path d="M10 8H6M8 10V6M5.05556 2H10.9444C11.1592 2 11.3333 2.17411 11.3333 2.38889C11.3333 3.46278 12.2039 4.33333 13.2778 4.33333H13.5556C13.801 4.33333 14 4.53232 14 4.77778V5.35018C14 9.04303 11.9979 12.4456 8.76978 14.239L8.51763 14.3791C8.19572 14.5579 7.80429 14.5579 7.48237 14.3791L7.23022 14.239C4.00209 12.4456 2 9.04303 2 5.35018V4.77778C2 4.53232 2.19898 4.33333 2.44444 4.33333H2.72222C3.79611 4.33333 4.66667 3.46278 4.66667 2.38889C4.66667 2.17411 4.84078 2 5.05556 2Z" stroke="currentColor" stroke-width="1.33333" stroke-linecap="round"/>
</svg>
