<svg viewBox="0 0 40 40" fill="none" xmlns="http://www.w3.org/2000/svg">
<path d="M39.0074 13.8293C42.4432 24.3204 36.6691 35.6223 26.1707 39.0081C15.6723 42.4415 4.36264 36.6714 0.974512 26.1802C-2.41361 15.6891 3.31279 4.38722 13.8112 1.00143C15.8154 0.333813 17.9151 0 20.0148 0C28.6521 0.0476871 36.2873 5.62708 39.0074 13.8293ZM19.9671 1.81211C9.89816 1.81211 1.78574 9.96661 1.78574 20.0286C1.78574 30.0906 9.94588 38.1974 20.0148 38.1974C30.0837 38.1974 38.1961 30.0429 38.1961 19.9809C38.1961 18.0734 37.9098 16.2136 37.2895 14.4015C34.8557 6.91464 27.8886 1.81211 19.9671 1.81211Z" fill="currentColor"/>
<path fill-rule="evenodd" clip-rule="evenodd" d="M26.7747 11.43C27.0218 11.326 27.2923 11.2901 27.558 11.3261C27.8237 11.3621 28.0749 11.4686 28.2854 11.6347C28.4959 11.8007 28.6581 12.0201 28.7551 12.27C28.852 12.52 28.8802 12.7914 28.8367 13.056L26.5687 26.813C26.3487 28.14 24.8927 28.901 23.6757 28.24C22.6577 27.687 21.1457 26.835 19.7857 25.946C19.1057 25.501 17.0227 24.076 17.2787 23.062C17.4987 22.195 20.9987 18.937 22.9987 17C23.7837 16.239 23.4257 15.8 22.4987 16.5C20.1967 18.238 16.5007 20.881 15.2787 21.625C14.2007 22.281 13.6387 22.393 12.9667 22.281C11.7407 22.077 10.6037 21.761 9.6757 21.376C8.4217 20.856 8.4827 19.132 9.6747 18.63L26.7747 11.43Z" fill="currentColor"/>
</svg>
