<svg viewBox="0 0 24 24" fill="none" xmlns="http://www.w3.org/2000/svg">
<g clip-path="url(#clip0_3640_34613)">
<path d="M24 0H0V24H24V0Z" fill="#3B8D33"/>
<path fill-rule="evenodd" clip-rule="evenodd" d="M11.9999 2.40039C6.6983 2.40039 2.3999 6.69879 2.3999 12.0004C2.3999 17.3028 6.6983 21.6004 11.9999 21.6004C17.3015 21.6004 21.5999 17.3028 21.5999 12.0004C21.5999 6.69879 17.3015 2.40039 11.9999 2.40039ZM11.1295 7.43318C11.3103 7.11158 12.4351 7.20039 12.7999 7.20039H15.9999C16.7999 7.20039 17.5999 6.40039 17.5999 6.40039L15.9999 9.60039C15.9999 9.60039 13.0647 9.59959 11.9999 9.60039C10.9359 9.60039 10.1911 10.918 10.1911 10.918L9.5999 12.0004L9.0791 11.0876L11.1295 7.43318ZM17.5999 16.8004H8.24951C8.24951 16.8004 5.39829 16.502 5.39829 13.658C5.39829 10.8484 7.93591 10.7756 7.93591 10.7756L9.1127 12.6852C9.1127 12.6852 6.86951 12.2372 6.86951 13.7244C6.86951 14.7076 7.6543 15.2116 8.4687 15.2172C8.6711 15.2188 9.1911 15.094 9.4479 14.6356C9.7039 14.1796 11.1647 11.5996 11.1647 11.5996C11.3455 11.278 12.0007 10.3996 12.8007 10.3996H17.6007C18.4007 10.3996 19.2007 9.59959 19.2007 9.59959L17.1455 14.1476C16.9647 14.47 16.3647 14.3996 16.0007 14.3996C16.0007 14.3996 12.4079 14.3996 12.0007 14.3996H11.2007C10.4007 14.3996 11.2007 15.1996 11.2007 15.1996C11.8591 15.1996 19.2007 15.1996 19.2007 15.1996L17.5999 16.8004Z" fill="white"/>
</g>
<defs>
<clipPath id="clip0_3640_34613">
<rect width="24" height="24" rx="12" fill="white"/>
</clipPath>
</defs>
</svg>
